<svg width="148" height="36" viewBox="0 0 148 36" fill="none" xmlns="http://www.w3.org/2000/svg">
<path fill-rule="evenodd" clip-rule="evenodd" d="M134.61 14.457C133.451 14.5549 132.285 13.6785 132.285 12.3275V3.38477H127.389V27.5938H132.285V23.9875C132.285 23.5511 132.458 23.1326 132.768 22.8235L134.032 21.559C134.674 20.9166 135.717 20.9166 136.36 21.559L142.393 27.5938L145.871 24.1744L139.237 17.5698L144.519 12.3135L141.126 8.79749C140.254 9.64215 136.111 13.6569 135.892 13.8667C135.511 14.2331 135.061 14.4188 134.61 14.457Z" fill="black"/>
<path fill-rule="evenodd" clip-rule="evenodd" d="M120.583 10.0254C121.976 10.0254 123.322 10.3523 124.622 11.0074L122.451 15.7689C121.574 15.2206 120.241 14.8466 119.107 14.8937C117.971 14.942 117.033 15.4114 116.346 16.078C115.659 16.7445 115.224 17.6057 115.224 19.019V27.5954H110.348V10.0254H120.583Z" fill="black"/>
<path fill-rule="evenodd" clip-rule="evenodd" d="M75.137 28.0089C78.4788 28.5533 81.9261 27.0637 83.8724 24.3122C85.8251 21.5492 86.1087 17.85 84.5085 14.8466C83.7185 13.3633 82.5545 12.1371 81.1031 11.2848C79.5829 10.3918 78.087 10.0254 76.3366 10.0254H66.1357V34.5117H71.0205C71.0205 31.2921 71.0205 21.6319 71.0205 20.0227C71.0205 19.2073 70.9747 18.4097 71.2203 17.5994C71.462 16.8005 71.8436 16.1607 72.4313 15.5691C74.894 13.0911 79.1326 13.9574 80.4543 17.1847C81.07 18.687 80.8703 20.459 79.9798 21.8062C79.0347 23.2347 77.4077 24.0667 75.6878 23.9942L75.137 28.0089Z" fill="black"/>
<path fill-rule="evenodd" clip-rule="evenodd" d="M48.2209 26.3447C47.7833 26.1107 47.3724 25.8601 46.9895 25.5942C46.7987 25.4619 46.613 25.3245 46.4349 25.1833C46.2568 25.0421 46.0851 24.8971 45.9222 24.7496C45.7581 24.602 45.6029 24.4506 45.4579 24.2992C45.3129 24.1479 45.1781 23.9939 45.0521 23.84C44.8015 23.5309 44.5891 23.2154 44.4174 22.8923L48.4639 20.3329C48.9002 20.8175 49.3391 21.2488 49.7779 21.6304C50.2155 22.0108 50.6773 22.3339 51.1607 22.5985C51.4024 22.7308 51.6568 22.8478 51.9214 22.9496C52.0537 22.9992 52.1898 23.0462 52.3272 23.0895C52.4658 23.1315 52.607 23.1709 52.7508 23.2052C52.8945 23.2396 53.0434 23.2701 53.1947 23.2968C53.2711 23.3096 53.3474 23.3223 53.425 23.3324C53.5026 23.3439 53.5802 23.3528 53.6603 23.3617C53.7392 23.3706 53.8193 23.3782 53.9007 23.3846C53.9822 23.391 54.0636 23.3961 54.1463 23.4011C54.1882 23.4037 54.2289 23.405 54.2709 23.4075C54.3129 23.4088 54.3549 23.41 54.3969 23.4113C54.4185 23.4126 54.4388 23.4126 54.4605 23.4126C54.4821 23.4139 54.5024 23.4139 54.5241 23.4139C54.5457 23.4139 54.5673 23.4139 54.5889 23.4139C54.5991 23.4139 54.6093 23.4139 54.6207 23.4139C54.6258 23.4139 54.6322 23.4139 54.6373 23.4139H54.6538C55.0927 23.4139 55.5354 23.3681 55.987 23.2752C56.2121 23.2294 56.4258 23.1683 56.6306 23.0933C56.8354 23.0182 57.0313 22.9279 57.2133 22.8249C57.3952 22.7206 57.5644 22.6048 57.7145 22.4738C57.8646 22.344 57.9969 22.2016 58.1126 22.0451C58.3441 21.7334 58.4586 21.3467 58.4586 20.885C58.4586 20.5619 58.3772 20.2502 58.2169 19.95C58.0541 19.6498 57.7781 19.3546 57.3863 19.0672C57.1904 18.9221 56.9601 18.7809 56.6955 18.6423C56.4309 18.5036 56.1333 18.3675 55.7962 18.2352C55.4591 18.1016 55.0838 17.9706 54.6627 17.8409C54.2429 17.7111 53.7774 17.5826 53.2711 17.4554C52.0257 17.1565 50.9075 16.8143 49.9166 16.4339C48.9244 16.0536 48.0835 15.5918 47.3915 15.0486C47.0455 14.7777 46.7402 14.4775 46.4756 14.1518C46.2097 13.8262 45.9846 13.4738 45.8014 13.0909C45.6182 12.708 45.4795 12.2946 45.3867 11.8443C45.3409 11.6191 45.3065 11.385 45.2824 11.1421C45.2709 11.0212 45.262 10.8978 45.2569 10.7719C45.2506 10.6459 45.248 10.5175 45.248 10.389C45.248 10.2491 45.2506 10.1079 45.2582 9.97047C45.2646 9.83182 45.2747 9.6957 45.2875 9.56213C45.3142 9.29372 45.3536 9.0304 45.407 8.77471C45.4605 8.51902 45.5266 8.27097 45.6068 8.02927C45.6869 7.78758 45.781 7.55224 45.8866 7.32454C45.9922 7.09683 46.1105 6.87804 46.2377 6.66687C46.3649 6.45698 46.5036 6.25599 46.6511 6.0639C46.9488 5.67973 47.2885 5.33245 47.6675 5.01952C48.0453 4.70786 48.4613 4.43182 48.9078 4.19266C49.1317 4.07309 49.3632 3.96242 49.6024 3.86065C49.8428 3.75888 50.0909 3.66602 50.3465 3.58206C50.6022 3.49938 50.8643 3.4256 51.1301 3.36199C51.396 3.29839 51.667 3.24623 51.9417 3.20553C52.4926 3.12157 53.0612 3.07959 53.6489 3.07959C54.8701 3.07959 55.9768 3.21825 56.969 3.49429C57.9612 3.7716 58.8492 4.1227 59.6328 4.54885C60.4164 4.97627 61.1033 5.45966 61.6897 6.00157C62.2774 6.54348 62.7672 7.06885 63.1603 7.57514L59.1837 10.1346C58.1915 9.18941 57.2527 8.52666 56.3648 8.1463C55.9208 7.95676 55.4667 7.81302 55.0036 7.71888C54.7721 7.67182 54.5381 7.63492 54.3002 7.61203C54.0623 7.58786 53.8193 7.57641 53.5815 7.57641C53.4339 7.57641 53.2876 7.5815 53.1477 7.5904C53.0077 7.59931 52.8742 7.6133 52.747 7.63238C52.4913 7.67054 52.2559 7.72652 52.0422 7.80157C51.8285 7.87662 51.6339 7.96058 51.4583 8.05217C51.2828 8.14503 51.1263 8.24553 50.9877 8.35493C50.8477 8.46432 50.7269 8.58136 50.62 8.70475C50.5666 8.76708 50.517 8.83068 50.4725 8.89556C50.4267 8.96171 50.3847 9.02913 50.3478 9.09782C50.3109 9.16652 50.2778 9.23521 50.2499 9.30263C50.2219 9.37005 50.199 9.43747 50.1799 9.50362C50.171 9.53669 50.1621 9.56977 50.1557 9.60284C50.1494 9.63592 50.143 9.66772 50.1379 9.70079C50.1328 9.73259 50.1303 9.76567 50.1277 9.79747C50.1265 9.81401 50.1252 9.83054 50.1252 9.84581C50.1252 9.85344 50.1252 9.86107 50.1239 9.86998C50.1239 9.87888 50.1239 9.88906 50.1239 9.89415C50.1239 10.3559 50.2448 10.7528 50.4865 11.0874C50.7294 11.4219 51.0856 11.7259 51.5588 12.0033C52.0321 12.2819 52.6198 12.5337 53.3232 12.764C53.4988 12.8212 53.6807 12.8797 53.8689 12.937C54.0572 12.9942 54.2518 13.0527 54.4516 13.11C54.5521 13.1392 54.6538 13.1672 54.7569 13.1965C54.8599 13.2257 54.9655 13.2537 55.0711 13.283C55.1245 13.297 55.1779 13.3122 55.2313 13.3262C55.2848 13.3402 55.3395 13.3555 55.3942 13.3695C55.4489 13.3835 55.5036 13.3987 55.5595 13.4127C55.5875 13.4204 55.6155 13.4267 55.6435 13.4344C55.6575 13.4382 55.6702 13.442 55.6855 13.4445C55.7007 13.4484 55.716 13.4522 55.7275 13.456C56.8342 13.7562 57.8531 14.0908 58.7894 14.4597C59.7218 14.8286 60.5283 15.2776 61.2089 15.8081C61.8882 16.3385 62.4199 16.972 62.799 17.7098C63.1806 18.4476 63.3701 19.3241 63.3701 20.338V20.4423C63.3701 20.9956 63.3142 21.5261 63.2022 22.0337C63.1463 22.2868 63.0763 22.5349 62.9911 22.7765C62.9071 23.0195 62.8079 23.2561 62.6959 23.4851C62.584 23.7153 62.4606 23.938 62.3258 24.1517C62.1909 24.3654 62.0472 24.5715 61.8907 24.7686C61.7355 24.9658 61.5689 25.1554 61.3921 25.336C61.214 25.5166 61.0257 25.6896 60.8285 25.8537C60.4329 26.1819 59.9991 26.4732 59.531 26.7276C59.2969 26.8549 59.0552 26.9719 58.8046 27.08C58.554 27.1881 58.2933 27.2874 58.0261 27.3764C57.759 27.4655 57.4842 27.5431 57.2044 27.6105C56.9232 27.6779 56.637 27.7326 56.3444 27.7784C56.0518 27.8229 55.7542 27.856 55.4489 27.8789C55.1436 27.9005 54.8306 27.912 54.5164 27.912C54.2251 27.912 53.9325 27.9031 53.6451 27.8852C53.3576 27.8674 53.0726 27.8407 52.7928 27.8051C52.2305 27.7339 51.681 27.6257 51.1454 27.4833C50.0705 27.1907 49.0948 26.8129 48.2209 26.3447Z" fill="black"/>
<path fill-rule="evenodd" clip-rule="evenodd" d="M36.3587 7.87542V3.38623H31.4828V7.08672C31.4828 8.50001 30.3366 9.64616 28.9234 9.64616H28.4031V14.3236H28.9234C30.3366 14.3236 31.4828 15.4698 31.4828 16.883V21.1293V22.755C31.4828 25.4289 33.6504 27.5965 36.3243 27.5965H38.0188H41.6506V22.8937H38.2961C38.1638 22.8937 38.0353 22.8822 37.9119 22.8593C37.7885 22.8364 37.6702 22.8021 37.5557 22.7563C37.4412 22.7105 37.3318 22.652 37.2275 22.5833C37.1754 22.5489 37.1245 22.5108 37.0749 22.4713C37.0253 22.4306 36.9757 22.3874 36.9286 22.3416C36.8815 22.2958 36.837 22.2487 36.795 22.2004C36.753 22.152 36.7149 22.1024 36.6793 22.0515C36.608 21.9498 36.5482 21.8416 36.5012 21.7297C36.4541 21.6178 36.4185 21.4994 36.3943 21.3773C36.3701 21.2552 36.3587 21.1267 36.3587 20.9944V16.0969C36.3587 15.1874 37.0952 14.4508 38.0048 14.4508H41.6506V9.52658H38.0048C37.0952 9.52149 36.3587 8.78496 36.3587 7.87542Z" fill="black"/>
<path fill-rule="evenodd" clip-rule="evenodd" d="M6.51182 10.8216V27.5953H1.63464V3.38623H17.9937V8.26213H9.06998C7.65669 8.26213 6.51182 9.40701 6.51182 10.8216Z" fill="black"/>
<path d="M16.3475 13.415H10.627V18.2909H16.3475V13.415Z" fill="black"/>
<path d="M25.6364 11.7017H20.7605V27.5951H25.6364V11.7017Z" fill="black"/>
<path d="M25.6364 3.38477H20.7605V8.27466H25.6364V3.38477Z" fill="black"/>
<path fill-rule="evenodd" clip-rule="evenodd" d="M95.989 23.236C95.7002 23.1088 95.428 22.9587 95.171 22.7844C95.0425 22.6979 94.9191 22.605 94.7983 22.5071C94.6775 22.4078 94.5604 22.3035 94.4485 22.1941C94.0032 21.7578 93.6445 21.2426 93.3939 20.6664C93.3316 20.5226 93.2756 20.3751 93.2273 20.2262C93.1789 20.0774 93.1395 19.926 93.109 19.7734C93.0772 19.6194 93.053 19.4642 93.0377 19.3065C93.0225 19.1488 93.0136 18.9872 93.0136 18.8269C93.0136 18.6603 93.0212 18.4936 93.0377 18.3308C93.053 18.168 93.0772 18.0077 93.109 17.85C93.1408 17.6922 93.1802 17.537 93.2273 17.3844C93.2756 17.2317 93.3303 17.0816 93.3939 16.9341C93.4563 16.7878 93.5262 16.644 93.6025 16.5066C93.6789 16.3693 93.7603 16.237 93.8481 16.1098C94.0236 15.8553 94.2246 15.6213 94.4485 15.4076C94.8988 14.9789 95.4115 14.638 95.989 14.3823C96.2765 14.2551 96.5767 14.1597 96.8871 14.096C97.0423 14.0642 97.2013 14.0401 97.3628 14.0248C97.5244 14.0095 97.6898 14.0006 97.8564 14.0006C98.0167 14.0006 98.177 14.0083 98.3347 14.0235C98.4924 14.0388 98.6489 14.0617 98.8028 14.0922C98.9568 14.1228 99.1094 14.1609 99.2595 14.2054C99.4109 14.2512 99.5597 14.3047 99.706 14.3645C100.29 14.6049 100.817 14.9509 101.263 15.3872C101.375 15.4966 101.482 15.6111 101.582 15.7294C101.683 15.8477 101.777 15.9711 101.865 16.0983C102.04 16.3527 102.192 16.6237 102.319 16.9124C102.572 17.4912 102.699 18.1146 102.699 18.785V27.4529H107.58V9.88672H97.2343C96.6237 9.88672 96.0297 9.94651 95.4534 10.0648C95.1659 10.1233 94.8823 10.1971 94.6024 10.2862C94.3225 10.3752 94.0465 10.4795 93.7768 10.5965C93.5071 10.7136 93.2438 10.8433 92.9894 10.982C92.735 11.1219 92.4907 11.2707 92.2541 11.431C92.0175 11.5913 91.7898 11.7618 91.571 11.9424C91.3522 12.123 91.1411 12.3151 90.9401 12.5161C90.5381 12.9181 90.1755 13.357 89.855 13.8302C89.5344 14.3034 89.2571 14.8097 89.0205 15.3516C88.7839 15.8935 88.6071 16.4558 88.4888 17.0384C88.4302 17.3297 88.3857 17.6248 88.3552 17.9263C88.3259 18.2278 88.3107 18.5369 88.3107 18.8447C88.3107 19.1475 88.3259 19.4503 88.3552 19.7479C88.3845 20.0456 88.429 20.3382 88.4888 20.6257C88.5473 20.9131 88.6211 21.1968 88.7101 21.478C88.7992 21.7578 88.9035 22.0339 89.0205 22.3035C89.1375 22.5732 89.2673 22.8365 89.4059 23.0897C89.5459 23.3441 89.6947 23.5883 89.855 23.8249C90.0153 24.0616 90.1857 24.2893 90.3664 24.5081C90.547 24.7269 90.7391 24.938 90.9401 25.139C91.1411 25.34 91.3522 25.5321 91.571 25.7115C91.7898 25.8921 92.0175 26.0613 92.2541 26.219C92.4907 26.378 92.735 26.5243 92.9894 26.6617C93.2438 26.7991 93.5071 26.925 93.7768 27.0395C94.0465 27.154 94.3225 27.2558 94.6024 27.3423C94.8823 27.4288 95.1659 27.5013 95.4534 27.5585C95.7409 27.6158 96.0348 27.659 96.3312 27.6883C96.48 27.7023 96.6288 27.7137 96.7802 27.7213C96.9316 27.729 97.0842 27.7315 97.2356 27.7315C97.4671 27.7315 97.6961 27.7226 97.9187 27.7061C98.1413 27.6895 98.3589 27.6628 98.57 27.6285L98.0994 23.6112C98.0205 23.6151 97.9391 23.6163 97.8577 23.6163C97.6923 23.6163 97.5269 23.6087 97.3641 23.5922C97.2025 23.5769 97.0435 23.5527 96.8883 23.5209C96.5767 23.4586 96.2777 23.3632 95.989 23.236Z" fill="black"/>
<path fill-rule="evenodd" clip-rule="evenodd" d="M141.621 0.233887C142.429 0.233887 143.16 0.562085 143.69 1.09127L143.691 1.09254C144.22 1.62173 144.548 2.35318 144.548 3.16095C144.548 3.96873 144.22 4.70145 143.691 5.23064C143.162 5.75982 142.429 6.08802 141.621 6.08802C140.815 6.08802 140.083 5.75982 139.553 5.23064L139.551 5.22936C139.022 4.6989 138.694 3.96746 138.694 3.16095C138.694 2.35318 139.022 1.62046 139.551 1.09127C140.081 0.560813 140.813 0.233887 141.621 0.233887ZM143.289 1.49325C142.863 1.0671 142.272 0.803781 141.621 0.803781C140.97 0.803781 140.381 1.06837 139.955 1.49452C139.529 1.92067 139.264 2.51092 139.264 3.16095C139.264 3.81226 139.527 4.40251 139.953 4.82738L139.955 4.82866C140.381 5.2548 140.97 5.51813 141.621 5.51813C142.272 5.51813 142.861 5.2548 143.288 4.82738C143.714 4.40124 143.978 3.81099 143.978 3.16095C143.978 2.50965 143.715 1.9194 143.289 1.49325Z" fill="black"/>
<path fill-rule="evenodd" clip-rule="evenodd" d="M140.486 4.54629V1.77441H141.664C141.961 1.77441 142.176 1.79986 142.311 1.84947C142.445 1.89908 142.552 1.98685 142.634 2.11406C142.714 2.24127 142.755 2.38629 142.755 2.55039C142.755 2.75901 142.694 2.93074 142.573 3.06558C142.451 3.20042 142.269 3.28565 142.027 3.32127C142.148 3.39123 142.247 3.46883 142.325 3.55406C142.403 3.63802 142.509 3.7894 142.641 4.00438L142.98 4.54502H142.311L141.91 3.9395C141.766 3.72452 141.667 3.58968 141.614 3.53371C141.56 3.47774 141.504 3.43957 141.446 3.41922C141.386 3.39887 141.292 3.38869 141.162 3.38869H141.049V4.54629H140.486ZM141.047 2.94728H141.462C141.731 2.94728 141.897 2.93583 141.965 2.91293C142.031 2.89003 142.084 2.8506 142.121 2.7959C142.159 2.73993 142.178 2.67123 142.178 2.58728C142.178 2.49314 142.153 2.41936 142.103 2.36085C142.054 2.3036 141.984 2.26671 141.893 2.25272C141.848 2.24636 141.711 2.24254 141.485 2.24254H141.049V2.94728H141.047Z" fill="black"/>
</svg>
