<svg width="73" height="70" viewBox="0 0 73 70" fill="none" xmlns="http://www.w3.org/2000/svg">
<g clip-path="url(#clip0_245_1760)">
<path d="M70.1148 31.3647C72.2315 34.3411 72.0365 36.8689 69.4515 39.545C67.5706 41.4921 65.6424 43.394 63.716 45.2964C63.35 45.6579 63.1933 46.0292 63.1968 46.5433C63.2159 49.3295 63.2098 52.116 63.2025 54.9024C63.1994 56.0725 62.9627 57.2056 62.4715 58.2632C61.4196 60.5282 59.4291 61.3027 57.1291 61.3723C54.3977 61.4549 51.6613 61.431 48.9285 61.3792C48.0166 61.3619 47.3626 61.6104 46.723 62.2788C44.8517 64.2345 42.9223 66.1356 40.984 68.0256C39.9522 69.0319 38.7468 69.737 37.2834 69.9871C36.3219 70.1514 35.4559 69.9155 34.6064 69.5644C33.2699 69.0119 32.2054 68.0672 31.1991 67.0574C29.5105 65.3631 27.8211 63.6694 26.1533 61.9548C25.7541 61.5443 25.3287 61.3856 24.76 61.39C22.1052 61.4108 19.4501 61.3876 16.7951 61.3972C15.808 61.4008 14.8565 61.2141 13.9444 60.8732C11.905 60.1109 10.9898 58.4689 10.5791 56.4514C10.3888 55.5167 10.4034 54.5713 10.4047 53.6259C10.4076 51.444 10.3947 49.262 10.426 47.0805C10.435 46.4537 10.2394 46.0048 9.79021 45.559C7.88763 43.6708 5.92283 41.8437 4.11813 39.8581C4.0651 39.7998 4.01271 39.7408 3.96134 39.681C1.39695 36.6954 1.44003 33.7748 4.16948 30.9185C5.98508 29.0186 7.86251 27.1766 9.74721 25.3446C10.2426 24.863 10.4382 24.3701 10.4296 23.686C10.3966 21.0314 10.4239 18.3761 10.4107 15.7212C10.4073 15.0314 10.4988 14.3554 10.6555 13.694C11.3645 10.702 13.3699 9.13161 16.5912 9.09129C19.456 9.05542 22.3218 9.06781 25.1869 9.09029C25.7605 9.09479 26.1725 8.9176 26.5714 8.51096C28.4121 6.63454 30.2708 4.77552 32.1379 2.92525C35.3391 -0.247144 38.0622 -0.416452 41.4522 2.56117C43.5016 4.36129 45.3584 6.38285 47.2706 8.33543C47.7836 8.85922 48.3005 9.11164 49.0575 9.09764C51.6065 9.05052 54.1569 9.08928 56.7067 9.07736C57.5842 9.07325 58.4362 9.21786 59.2664 9.46751C61.5457 10.153 62.6227 11.8399 63.0494 14.0655C63.2291 15.0028 63.2157 15.9464 63.2161 16.8907C63.2171 19.0988 63.2216 21.3071 63.1955 23.5149C63.1895 24.0289 63.3516 24.3986 63.7098 24.7656C65.6554 26.759 67.7294 28.6255 69.5848 30.7074C69.7594 30.9033 69.9165 31.1146 70.1148 31.3647ZM58.3499 49.1185C59.3704 48.0948 60.3728 47.0521 61.4198 46.0563C61.8744 45.6241 62.0616 45.1735 62.0599 44.5388C62.0429 38.0988 62.0517 31.6588 62.0718 25.2188C62.0731 24.8328 61.9421 24.5821 61.6871 24.3275C57.1681 19.8134 52.6513 15.2972 48.1452 10.7702C47.7653 10.3886 47.3689 10.2031 46.8253 10.2151C45.6431 10.2413 44.4592 10.2378 43.2771 10.2056C42.7899 10.1923 42.0326 10.3487 42.0724 9.58481C42.108 8.90114 42.8277 9.10046 43.295 9.08963C44.2702 9.06704 45.2462 9.0828 46.2219 9.0828C44.2453 6.93548 42.4705 4.73494 40.2705 2.97341C37.7658 0.967901 35.5703 1.1061 33.2595 3.35951C31.4907 5.08446 29.7563 6.84477 28.0125 8.59533C27.8978 8.71049 27.6844 8.79681 27.7832 9.08073C27.982 9.08073 28.1902 9.07998 28.3985 9.08086C29.2133 9.08432 30.0282 9.08072 30.8429 9.09594C31.1528 9.10173 31.4325 9.22113 31.4669 9.57282C31.5066 9.97767 31.2197 10.1222 30.8776 10.1654C30.6178 10.1982 30.354 10.2099 30.0918 10.2121C29.093 10.2206 28.0936 10.2409 27.0954 10.2171C26.5807 10.2048 26.1996 10.3776 25.8463 10.7471C25.0473 11.5829 24.2175 12.3893 23.3971 13.2046C23.1317 13.4683 22.8351 13.7813 22.4571 13.44C22.0306 13.0547 22.3513 12.7237 22.6436 12.448C23.365 11.7675 24.1011 11.1026 24.8312 10.4314C24.4583 10.2098 24.2261 10.1389 24.0008 10.1564C21.4033 10.3584 18.8013 10.0535 16.2027 10.2453C13.3743 10.454 11.8799 11.9149 11.5961 14.7601C11.3317 17.4101 11.5208 20.0639 11.4822 22.7155C11.4791 22.9308 11.4635 23.1763 11.7085 23.4069C12.4641 22.6379 13.1963 21.887 13.9356 21.1432C14.2206 20.8565 14.5622 20.5361 14.9496 20.8942C15.3638 21.2772 15.0109 21.5997 14.7269 21.8845C13.7989 22.8152 12.8713 23.7462 11.9398 24.6735C11.691 24.9212 11.5335 25.1701 11.5349 25.5623C11.5581 31.9758 11.5702 38.3894 11.5567 44.8028C11.5554 45.4564 11.7074 45.9428 12.1972 46.3989C13.4278 47.5447 14.6232 48.7293 15.8097 49.9214C19.073 53.2 22.3285 56.4867 25.575 59.782C25.9195 60.1317 26.29 60.2639 26.7666 60.256C27.8966 60.2371 29.0276 60.2304 30.1572 60.2591C30.649 60.2716 31.4098 60.1099 31.4149 60.8338C31.4202 61.5921 30.657 61.3718 30.1714 61.3859C29.2529 61.4125 28.3332 61.3936 27.4139 61.3936C29.4086 63.5687 31.2499 65.7411 33.4404 67.5502C35.025 68.8589 36.7858 69.4207 38.752 68.3001C39.4208 67.919 40.0099 67.4363 40.5524 66.9004C42.1979 65.2748 43.8328 63.6384 45.462 61.9965C45.6141 61.8431 45.8431 61.7222 45.8675 61.3962C45.5354 61.3962 45.2244 61.3973 44.9135 61.3959C44.0724 61.3924 43.2312 61.3952 42.3903 61.3801C42.0315 61.3736 41.7647 61.1849 41.7581 60.8131C41.7518 60.457 42.0494 60.3386 42.3509 60.2974C42.6101 60.262 42.8744 60.2532 43.1365 60.2518C44.2405 60.2459 45.3452 60.2243 46.4483 60.2556C46.9934 60.271 47.3975 60.0964 47.7697 59.7058C48.5311 58.9069 49.3255 58.1393 50.1066 57.3592C50.3983 57.0679 50.7227 56.7654 51.1072 57.1685C51.4546 57.5325 51.1809 57.8468 50.8991 58.109C50.2121 58.7483 49.5182 59.38 48.827 60.0148C49.0607 60.2206 49.1556 60.2404 49.2504 60.2403C51.9577 60.2358 54.6665 60.2852 57.3718 60.2078C60.2036 60.1268 61.7702 58.4972 62.0288 55.6657C62.271 53.0136 62.0964 50.3613 62.141 47.7097C62.1447 47.4913 62.0998 47.272 62.0555 46.8387C61.0509 47.8838 60.18 48.793 59.3047 49.698C59.0988 49.9109 58.8653 50.1138 58.5456 49.9535C58.2409 49.8007 58.1993 49.5159 58.2677 49.198C58.2677 49.198 58.2757 49.1896 58.3499 49.1185ZM62.1576 17.5703C62.1928 16.5448 62.1195 15.5259 62.0078 14.5063C61.7305 11.9752 60.1864 10.3916 57.6379 10.2883C55.0422 10.1831 52.4399 10.2368 49.8405 10.2348C49.6577 10.2346 49.4289 10.1147 49.3226 10.2545C53.5734 14.5152 57.8053 18.757 62.1575 23.1193C62.1575 21.2367 62.1575 19.482 62.1576 17.5703ZM22.895 58.6183C19.1579 54.8758 15.4209 51.1333 11.6839 47.3908C11.6106 47.4278 11.5374 47.4648 11.4642 47.5018C11.5733 50.5056 11.1486 53.53 11.7489 56.5104C12.2467 58.9828 13.6804 60.1352 16.2395 60.2061C18.7872 60.2768 21.3381 60.2347 23.8876 60.2366C24.0269 60.2367 24.2156 60.2949 24.2954 59.948C23.8862 59.561 23.4297 59.1294 22.895 58.6183ZM63.6271 43.8503C64.4621 43.0149 65.3056 42.1878 66.13 41.3422C67.2104 40.234 68.3839 39.2116 69.3308 37.9794C70.7114 36.1832 70.7996 34.4851 69.6376 32.5876C69.294 32.0264 68.8909 31.5072 68.4252 31.0416C66.9031 29.5198 65.3785 28.0005 63.8477 26.4875C63.6885 26.3302 63.5626 26.1096 63.298 26.076C63.1338 26.2586 63.2011 26.479 63.2009 26.6767C63.1951 32.268 63.1952 37.8592 63.1969 43.4505C63.1969 43.6327 63.1721 43.8418 63.2504 43.99C63.3401 44.1598 63.4578 43.9735 63.6271 43.8503ZM5.64011 39.9107C7.18259 41.4258 8.72506 42.9408 10.3785 44.5649C10.3785 38.3884 10.3785 32.4005 10.3785 26.4087C9.65006 26.5686 9.44408 27.2091 9.03879 27.6308C7.52938 29.2011 5.87951 30.6343 4.46367 32.2947C2.91156 34.1148 2.78315 36.0234 4.05601 38.0116C4.48334 38.6791 5.02504 39.2516 5.64011 39.9107Z" fill="white"/>
<path d="M25.0996 34.6051C25.4523 33.2507 25.0389 32.3896 23.717 31.6462C22.6353 31.0379 21.4413 30.6906 20.3111 30.1947C19.8301 29.9837 19.3441 29.7816 18.8747 29.5469C17.1221 28.6707 15.9355 27.3977 16.1063 25.2898C16.2736 23.2249 17.4268 21.8537 19.2975 21.0634C21.5422 20.1151 23.7895 20.5122 26.0079 21.1564C27.7901 21.674 27.5225 21.5459 26.9126 22.9938C26.485 24.0091 26.4819 24.0005 25.3956 23.6988C23.9438 23.2958 22.4811 22.985 20.9728 23.3774C20.379 23.5319 19.837 23.7978 19.4238 24.2695C18.6937 25.1031 18.8693 26.2822 19.8233 26.931C20.9904 27.7247 22.3434 28.103 23.6366 28.6121C24.5459 28.97 25.4226 29.3781 26.1951 29.9874C29.2876 32.4264 28.6581 37.2515 24.9751 38.6541C21.8591 39.8407 18.7424 39.6015 15.7449 38.0809C15.3002 37.8553 15.1712 37.6096 15.4387 37.1554C15.7709 36.5912 15.9254 35.8103 16.4036 35.474C16.9332 35.1015 17.5231 35.8079 18.1032 35.9933C19.8229 36.5429 21.5347 36.7751 23.2698 36.1031C24.0182 35.8132 24.6839 35.4045 25.0996 34.6051Z" fill="white"/>
<path d="M45.3437 24.1398C48.1465 20.6134 52.9521 19.4184 57.0389 21.1949C57.9832 21.6054 57.9995 21.6533 57.5045 22.5575C56.7882 23.8661 56.7882 23.8661 55.3098 23.4775C51.6422 22.5132 48.1987 24.034 46.8469 27.2558C45.8291 29.6812 46.2152 31.9598 47.8277 33.9853C49.4226 35.9887 51.5803 36.6752 54.0815 36.3065C55.1476 36.1493 56.1756 35.8366 57.1731 35.2525C57.6957 35.9786 57.99 36.7603 58.3226 37.5158C58.487 37.8895 58.1296 38.0106 57.8879 38.1472C56.797 38.7636 55.6026 39.0935 54.3773 39.2503C47.4117 40.1415 43.2768 35.3657 43.4083 29.6726C43.4547 27.6633 44.0549 25.799 45.3437 24.1398Z" fill="white"/>
<path d="M37.331 27.1123C37.331 30.8693 37.3147 34.5476 37.3448 38.2255C37.3507 38.9461 37.1339 39.1888 36.4045 39.1643C34.1276 39.0881 34.4283 39.4753 34.4196 37.2125C34.4034 32.9565 34.4145 28.7003 34.411 24.4441C34.4102 23.3791 34.4048 23.3789 33.3114 23.3791C32.3919 23.3793 31.472 23.3636 30.553 23.3868C30.041 23.3998 29.8464 23.1823 29.8502 22.6864C29.8692 20.1626 29.6188 20.6356 31.7822 20.6161C34.8821 20.5882 37.9827 20.6312 41.0824 20.5935C41.8273 20.5845 42.0414 20.8512 42.0283 21.5501C41.9874 23.7285 42.2146 23.3393 40.2506 23.3745C39.5414 23.3873 38.8298 23.4108 38.1232 23.367C37.4838 23.3274 37.2987 23.5949 37.3217 24.1964C37.3577 25.1408 37.3311 26.0876 37.331 27.1123Z" fill="white"/>
<path d="M15.1694 43.7379C15.4327 42.4636 15.8964 42.0724 17.1147 42.0427C17.6925 42.0287 18.2723 41.9975 18.8483 42.0282C20.0697 42.0931 20.7067 42.8629 20.6072 44.0646C20.5739 44.4658 20.412 44.7358 20.0107 44.7608C19.6117 44.7856 19.3739 44.5423 19.326 44.1475C19.2789 43.7592 19.3326 43.2876 18.8266 43.1905C18.132 43.0572 17.3659 42.913 16.7586 43.3253C16.2387 43.6784 16.4948 44.3492 16.539 44.8748C16.5788 45.3486 17.0062 45.3679 17.3904 45.3669C17.916 45.3656 18.4433 45.3434 18.9669 45.3771C20.002 45.4438 20.5892 46.082 20.6065 47.1135C20.6496 49.6807 20.3154 50.0212 17.7363 50.0125C17.267 50.0109 16.7953 50.0627 16.3359 49.8751C15.4541 49.5152 15.0063 48.7252 15.1788 47.7967C15.244 47.4456 15.4239 47.2011 15.7899 47.1858C16.192 47.169 16.4124 47.4015 16.4778 47.797C16.5379 48.1609 16.3409 48.7011 16.8673 48.7962C17.5839 48.9258 18.4076 49.0786 19.0254 48.7067C19.5945 48.3642 19.2841 47.5943 19.266 47.0104C19.2527 46.5829 18.879 46.4729 18.5279 46.4451C18.1099 46.4121 17.6878 46.4246 17.2676 46.4272C15.7244 46.4369 15.1793 45.9027 15.1658 44.3594C15.1642 44.1754 15.1665 43.9914 15.1694 43.7379Z" fill="white"/>
<path d="M52.2971 47.5325C52.4091 49.4807 51.9128 50.012 50.0459 50.0147C47.1636 50.0187 46.8932 49.7489 46.8988 46.8765C46.9006 45.957 46.8919 45.0374 46.904 44.118C46.9235 42.6315 47.4869 42.0668 48.9573 42.0454C49.4826 42.0377 50.0089 42.0238 50.5334 42.0446C51.8558 42.097 52.5652 42.9577 52.3712 44.2417C52.3171 44.5996 52.145 44.8249 51.7661 44.8436C51.3962 44.8619 51.1915 44.6807 51.0889 44.3231C50.9799 43.9431 51.1856 43.4034 50.6646 43.222C50.0318 43.0016 49.37 43.0634 48.7227 43.2029C48.3547 43.2821 48.2227 43.5526 48.2227 43.9054C48.2229 45.3241 48.2209 46.7427 48.2274 48.1614C48.228 48.2874 48.2421 48.4568 48.3208 48.5322C48.9643 49.1487 49.762 48.7891 50.4899 48.8228C50.9965 48.8462 51.07 48.4014 51.1105 47.9818C51.1936 47.1228 51.542 46.9789 52.2971 47.5325Z" fill="white"/>
<path d="M28.6584 46.6537C29.3168 46.3345 29.9574 46.4818 30.5799 46.4602C31.0973 46.4422 31.6187 46.4879 31.6334 45.7465C31.6478 45.0203 31.1531 44.9917 30.6191 44.9776C29.9714 44.9604 29.338 44.8974 29.2019 45.7997C29.1617 46.0662 28.8736 46.2092 28.5771 46.1458C28.2921 46.0848 28.1424 45.8902 28.0985 45.5943C27.9853 44.832 28.6661 44.0363 29.5629 43.9617C30.1363 43.914 30.7188 43.912 31.293 43.952C32.1909 44.0146 32.8069 44.5904 32.8567 45.5272C32.9234 46.7831 32.8894 48.0447 32.8827 49.3037C32.8804 49.717 32.7028 50.0246 32.2296 50.018C31.7612 50.0115 31.7029 49.6726 31.6874 49.308C31.683 49.2034 31.6616 49.0995 31.656 48.9949C31.5716 47.423 31.355 47.2597 29.7548 47.5002C29.2503 47.576 29.1123 47.884 29.1256 48.3295C29.14 48.8077 29.431 48.9537 29.8575 48.9468C30.1446 48.9421 30.4331 48.9315 30.7186 48.9544C31.0148 48.9781 31.2156 49.1474 31.2149 49.4597C31.2141 49.7617 31.0349 49.9663 30.7362 49.988C30.0563 50.0374 29.369 50.0877 28.7191 49.8078C27.6382 49.3423 27.5731 47.5779 28.6584 46.6537Z" fill="white"/>
<path d="M34.5857 49.7282C33.9357 49.159 33.7062 48.2047 34.0183 47.4129C34.3237 46.6376 34.9614 46.4255 35.7369 46.4582C36.1555 46.4759 36.5767 46.4309 36.9956 46.4461C37.4656 46.4631 37.6754 46.2291 37.6894 45.7912C37.7039 45.3349 37.5081 44.9921 37.0219 44.9983C36.2946 45.0075 35.3743 44.6411 35.1793 45.8677C35.1388 46.1223 34.8119 46.2219 34.5203 46.1349C34.2334 46.0493 34.1097 45.8492 34.0862 45.5519C34.0272 44.8063 34.6662 44.0584 35.5338 43.9708C36.1311 43.9105 36.7423 43.9118 37.3411 43.961C38.2379 44.0347 38.8422 44.6482 38.8752 45.5677C38.9195 46.799 38.888 48.0332 38.8816 49.2661C38.8792 49.7177 38.7063 50.0533 38.1897 50.0148C37.6883 49.9773 37.6658 49.5856 37.6611 49.2024C37.6608 49.1762 37.6654 49.1501 37.6661 49.1239C37.7143 47.432 37.4695 47.2302 35.7564 47.504C35.3065 47.5759 35.1399 47.8345 35.1238 48.2575C35.1061 48.7235 35.3571 48.937 35.783 48.9623C36.0426 48.9777 36.3055 48.9219 36.5668 48.9233C36.9057 48.9252 37.2277 49.0219 37.25 49.4185C37.2714 49.799 37.0026 49.989 36.6465 49.9993C35.9684 50.0191 35.2784 50.1011 34.5857 49.7282Z" fill="white"/>
<path d="M26.1059 44.246C26.6184 44.5873 26.7818 45.0249 26.776 45.5654C26.763 46.7745 26.7721 47.9839 26.774 49.1931C26.7746 49.5802 26.7516 49.9791 26.249 50.0038C25.7159 50.0301 25.6049 49.6311 25.6004 49.2061C25.5891 48.1284 25.5769 47.0501 25.599 45.9728C25.6131 45.2879 25.3682 44.9691 24.6359 44.9674C23.1332 44.964 23.1338 44.9362 23.1343 46.4565C23.1347 47.4029 23.1331 48.3493 23.1323 49.2957C23.132 49.6744 23.0304 49.9942 22.5837 50.0093C22.1029 50.0256 21.9512 49.7074 21.9508 49.2883C21.9489 47.1064 21.9493 44.9244 21.9533 42.7425C21.954 42.3287 22.1074 41.99 22.5753 41.9972C23.0621 42.0047 23.1497 42.3646 23.1353 42.775C23.0953 43.9105 23.0039 43.958 24.3679 43.9403C24.9419 43.9329 25.5318 43.8651 26.1059 44.246Z" fill="white"/>
<path d="M58.2639 49.2025C57.2006 50.3531 55.8786 50.1127 54.5992 49.8222C53.9677 49.6788 53.6314 49.1303 53.6301 48.4464C53.6281 47.4497 53.6279 46.4529 53.6349 45.4563C53.6406 44.6455 54.1369 44.1619 54.8467 44.0117C55.6101 43.8501 56.4181 43.8509 57.1903 44.0182C57.8591 44.1632 58.3626 44.6176 58.4035 45.3073C58.4775 46.5573 58.5874 47.8186 58.2919 49.1268C58.2756 49.1897 58.2676 49.198 58.2639 49.2025ZM57.2615 48.2312C57.264 47.4447 57.255 46.6578 57.2727 45.8716C57.2871 45.2367 56.9916 44.9526 56.3664 44.9806C56.1571 44.99 55.9464 44.9908 55.7373 44.9784C55.1169 44.9413 54.8038 45.2023 54.8214 45.8491C54.8392 46.5041 54.8163 47.1601 54.8278 47.8154C54.8352 48.2434 54.6988 48.7486 55.3035 48.9217C55.945 49.1054 56.958 48.8129 57.2615 48.2312Z" fill="white"/>
<path d="M39.9464 49.0001C39.9506 47.9018 39.9429 46.8777 39.9577 45.8541C39.9802 44.299 41.3637 43.3933 42.7978 43.9845C43.0466 44.0871 43.1706 44.2766 43.1326 44.5419C43.0935 44.8153 42.8975 44.9247 42.6398 44.9684C42.2128 45.0409 41.6662 44.7767 41.3771 45.191C41.0679 45.6342 41.2578 46.2135 41.2434 46.7321C41.2217 47.5191 41.25 48.3073 41.236 49.0946C41.2284 49.5228 41.198 49.999 40.6151 50.0091C39.9948 50.0198 39.9303 49.5583 39.9464 49.0001Z" fill="white"/>
</g>
<defs>
<clipPath id="clip0_245_1760">
<rect width="72.6923" height="70" fill="white" transform="translate(0.307617)"/>
</clipPath>
</defs>
</svg>
