<svg width="84" height="84" viewBox="0 0 84 84" fill="none" xmlns="http://www.w3.org/2000/svg">
<path d="M42 4.8125C21.4944 4.8125 4.8125 21.4944 4.8125 42C4.8125 62.5056 21.4944 79.1875 42 79.1875C62.5056 79.1875 79.1875 62.5056 79.1875 42C79.1875 21.4944 62.5056 4.8125 42 4.8125ZM42 74.8125C23.9067 74.8125 9.1875 60.0933 9.1875 42C9.1875 23.9067 23.9067 9.1875 42 9.1875C60.0933 9.1875 74.8125 23.9067 74.8125 42C74.8125 60.0933 60.0933 74.8125 42 74.8125Z" fill="#3887CD"/>
<path d="M58.9698 30.03L39.669 49.3299L29.7667 39.4284C29.5639 39.2238 29.3227 39.0612 29.0569 38.9501C28.7912 38.8389 28.5061 38.7813 28.218 38.7807C27.9299 38.78 27.6445 38.8362 27.3783 38.9461C27.112 39.0561 26.87 39.2175 26.6663 39.4212C26.4626 39.6248 26.3011 39.8667 26.1911 40.133C26.0811 40.3992 26.0248 40.6846 26.0254 40.9726C26.026 41.2607 26.0835 41.5458 26.1945 41.8116C26.3056 42.0774 26.4681 42.3187 26.6727 42.5215L38.122 53.97C38.549 54.3979 39.109 54.6114 39.669 54.6114C40.229 54.6114 40.789 54.3979 41.216 53.97L62.0629 33.1231C62.2718 32.9213 62.4385 32.68 62.5531 32.4131C62.6678 32.1462 62.7281 31.8591 62.7306 31.5687C62.7332 31.2782 62.6778 30.9902 62.5678 30.7214C62.4578 30.4525 62.2954 30.2083 62.09 30.0029C61.8846 29.7975 61.6404 29.6351 61.3716 29.5251C61.1027 29.4151 60.8147 29.3597 60.5242 29.3623C60.2338 29.3648 59.9467 29.4251 59.6798 29.5398C59.413 29.6544 59.1716 29.8211 58.9698 30.03Z" fill="#3887CD"/>
</svg>
