<svg width="16" height="16" viewBox="0 0 16 16" fill="none" xmlns="http://www.w3.org/2000/svg">
<path d="M8.3538 13.5021L5.07647 13.4422C4.01534 13.4213 2.95158 13.463 1.91126 13.2467C0.328691 12.9235 0.216577 11.3388 0.0992606 10.0096C-0.0623891 8.14084 0.000190341 6.23816 0.305244 4.38501C0.477457 3.3452 1.15518 2.72473 2.20327 2.65721C5.74131 2.41218 9.30289 2.44122 12.8331 2.55553C13.2059 2.56601 13.5813 2.62329 13.949 2.68849C15.7637 3.00648 15.8079 4.80228 15.9256 6.314C16.0429 7.84132 15.9933 9.37649 15.7691 10.8934C15.5892 12.1494 15.245 13.2026 13.7925 13.3043C11.9726 13.4373 10.1944 13.5443 8.3694 13.5102C8.36948 13.5021 8.359 13.5021 8.3538 13.5021ZM6.42704 10.3224C7.79851 9.5352 9.1438 8.76114 10.5074 7.97924C9.1334 7.19206 7.79066 6.418 6.42704 5.6361V10.3224Z" fill="white"/>
</svg>
